<?xml version="1.0" encoding="utf-8"?>
<!-- Generator: Adobe Illustrator 26.4.1, SVG Export Plug-In . SVG Version: 6.00 Build 0)  -->
<svg version="1.1" id="Layer_1" xmlns="http://www.w3.org/2000/svg" xmlns:xlink="http://www.w3.org/1999/xlink" x="0px" y="0px"
	 viewBox="0 0 100 100" style="enable-background:new 0 0 100 100;" xml:space="preserve">
<style type="text/css">
	.st0{fill:#009EFF;}
	.st1{fill:#FFFFFF;}
</style>
<path class="st0" d="M16,0h68c8.8,0,16,7.2,16,16v68c0,8.8-7.2,16-16,16H16c-8.8,0-16-7.2-16-16V16C0,7.2,7.2,0,16,0z"/>
<g>
	<g>
		<path class="st1" d="M93.8,13.8c-4.2,2-8.5,4-12.8,6c-1.3,0.6-2.6,1.2-4,1.9c-2.9,1.3-5.7,2.7-8.6,4c-2.5,1.2-5,2.3-7.5,3.5
			c-8.6,4-17.2,8-25.7,12c-0.5,0.2-1,0.5-1.6,0.7c-3.8,1.8-7.7,3.6-11.5,5.4c-3.4,1.6-7.9-3.1-9.9-10c-0.1-4.1,2.1-7.8,5.5-9.8
			c2.6-0.5,5.1-1,7.7-1.4c5.5-1,11-2.1,16.6-3.1c0.3-0.1,0.5-0.1,0.8-0.1c5.7-1,11.3-2.1,17-3.1c1.3-0.2,2.6-0.5,4-0.7
			c3.5-0.7,7.1-1.3,10.6-2c6.1-1.1,12.1-2.2,18.2-3.4c0.4-0.1,0.8-0.1,1.2-0.2C93.7,13.5,93.8,13.6,93.8,13.8z"/>
	</g>
	<g>
		<path class="st1" d="M62.8,45.1c-2.4,1.3-4.8,2.7-7.1,4c-0.7,0.4-1.5,0.8-2.2,1.2c-1.6,0.9-3.2,1.8-4.8,2.7
			c-1.4,0.8-2.8,1.6-4.2,2.4c-4.8,2.7-9.6,5.4-14.4,8.1c-0.3,0.2-0.6,0.3-0.9,0.5c-2.1,1.2-4.3,2.4-6.4,3.6
			c-1.9,1.1-4.7-1.4-6.2-5.4c-0.2-2.4,0.9-4.6,2.8-5.9c1.5-0.4,2.9-0.8,4.4-1.2c3.2-0.8,6.3-1.7,9.5-2.5c0.1,0,0.3-0.1,0.5-0.1
			c3.2-0.8,6.5-1.7,9.7-2.6c0.8-0.2,1.5-0.4,2.3-0.6c2-0.5,4-1.1,6.1-1.6c3.5-0.9,6.9-1.8,10.4-2.7c0.2-0.1,0.5-0.1,0.7-0.2
			C62.7,44.9,62.7,45,62.8,45.1z"/>
	</g>
	<g>
		<path class="st1" d="M51.1,68.4c-1.8,1.1-3.5,2.2-5.3,3.2c-0.5,0.3-1.1,0.7-1.6,1c-1.2,0.7-2.4,1.4-3.6,2.2
			c-1,0.6-2.1,1.3-3.1,1.9c-3.6,2.1-7.1,4.3-10.7,6.5c-0.2,0.1-0.4,0.3-0.6,0.4c-1.6,1-3.2,1.9-4.8,2.9c-1.4,0.9-3.6-1-4.8-3.9
			c-0.2-1.8,0.6-3.5,1.9-4.6c1.1-0.3,2.2-0.7,3.3-1c2.4-0.7,4.7-1.4,7.1-2.1c0.1,0,0.2-0.1,0.3-0.1c2.4-0.7,4.9-1.4,7.3-2.2
			c0.6-0.2,1.1-0.3,1.7-0.5c1.5-0.5,3-0.9,4.6-1.4c2.6-0.8,5.2-1.5,7.8-2.3c0.2-0.1,0.3-0.1,0.5-0.1C51,68.3,51,68.3,51.1,68.4z"/>
	</g>
</g>
</svg>
