<?xml version="1.0" encoding="utf-8"?>
<!-- Generator: Adobe Illustrator 26.4.1, SVG Export Plug-In . SVG Version: 6.00 Build 0)  -->
<svg version="1.1" id="Layer_1" xmlns="http://www.w3.org/2000/svg" xmlns:xlink="http://www.w3.org/1999/xlink" x="0px" y="0px"
	 viewBox="0 0 406 100" style="enable-background:new 0 0 406 100;" xml:space="preserve">
<style type="text/css">
	.st0{fill:#009EFF;}
</style>
<g>
	<g>
		<path class="st0" d="M245.4,12.2c-4.5,2.1-8.9,4.2-13.4,6.3c-1.4,0.7-2.8,1.3-4.2,1.9c-3,1.4-6,2.8-9.1,4.2
			c-2.6,1.2-5.2,2.4-7.9,3.7c-9,4.2-18,8.4-27.1,12.6c-0.5,0.3-1.1,0.5-1.6,0.8c-4,1.9-8.1,3.8-12.1,5.7c-3.6,1.7-8.4-3.2-10.4-10.6
			c-0.1-4.3,2.2-8.2,5.8-10.4c2.7-0.5,5.4-1,8.1-1.5c5.8-1.1,11.6-2.2,17.4-3.3c0.3-0.1,0.6-0.1,0.8-0.1c6-1.1,11.9-2.2,17.9-3.3
			c1.4-0.2,2.8-0.5,4.2-0.7c3.7-0.7,7.4-1.4,11.2-2.1c6.4-1.2,12.7-2.3,19.1-3.5c0.4-0.1,0.8-0.1,1.2-0.2
			C245.3,11.9,245.4,12.1,245.4,12.2z"/>
	</g>
	<g>
		<path class="st0" d="M212.8,45.1c-2.5,1.4-5,2.9-7.5,4.3c-0.8,0.4-1.6,0.9-2.3,1.3c-1.7,0.9-3.4,1.9-5.1,2.8
			c-1.5,0.8-2.9,1.6-4.4,2.5c-5.1,2.8-10.1,5.7-15.2,8.5c-0.3,0.2-0.6,0.3-0.9,0.5c-2.3,1.3-4.5,2.5-6.8,3.8c-2,1.1-5-1.5-6.5-5.7
			c-0.2-2.5,0.9-4.9,2.9-6.3c1.5-0.4,3.1-0.8,4.6-1.2c3.3-0.9,6.6-1.8,10-2.6c0.2,0,0.3-0.1,0.5-0.1c3.4-0.9,6.8-1.8,10.2-2.7
			c0.8-0.2,1.6-0.4,2.4-0.6c2.1-0.6,4.3-1.1,6.4-1.7c3.7-0.9,7.3-1.9,10.9-2.9c0.2-0.1,0.5-0.1,0.7-0.2
			C212.7,45,212.7,45.1,212.8,45.1z"/>
	</g>
	<g>
		<path class="st0" d="M200.4,69.7c-1.9,1.1-3.7,2.3-5.6,3.4c-0.6,0.4-1.2,0.7-1.7,1c-1.3,0.8-2.5,1.5-3.8,2.3
			c-1.1,0.7-2.2,1.3-3.3,2c-3.8,2.3-7.5,4.5-11.3,6.8c-0.2,0.1-0.5,0.3-0.7,0.4c-1.7,1-3.4,2-5,3c-1.5,0.9-3.8-1-5.1-4.1
			c-0.2-1.9,0.6-3.7,2-4.8c1.2-0.3,2.3-0.7,3.5-1c2.5-0.7,5-1.5,7.5-2.2c0.1,0,0.2-0.1,0.4-0.1c2.6-0.8,5.1-1.5,7.7-2.3
			c0.6-0.2,1.2-0.3,1.8-0.5c1.6-0.5,3.2-0.9,4.8-1.4c2.7-0.8,5.5-1.6,8.2-2.4c0.2-0.1,0.4-0.1,0.5-0.1
			C200.4,69.6,200.4,69.6,200.4,69.7z"/>
	</g>
	<g>
		<path d="M45.2,55.8c4.8,3.1,7.2,7.5,7.2,13.2c0,5.1-1.8,9.2-5.4,12.4c-3.6,3.2-8.1,4.8-13.4,4.8H9V27.7h22.9
			c5.2,0,9.6,1.5,13.2,4.6c3.5,3.1,5.3,7.1,5.3,12.1C50.3,49,48.6,52.9,45.2,55.8z M31.9,40.2h-9.5v10.4h9.5c1.5,0,2.7-0.5,3.7-1.5
			c0.9-1,1.4-2.2,1.4-3.7c0-1.5-0.5-2.7-1.4-3.7C34.6,40.7,33.4,40.2,31.9,40.2z M33.6,73.6c1.7,0,3-0.5,4-1.5c1-1,1.5-2.4,1.5-4.1
			c0-1.7-0.5-3-1.5-4.1c-1-1-2.3-1.5-4-1.5H22.4v11.2H33.6z"/>
		<path d="M97.2,86.1l-3.1-9.2H71.6l-2.9,9.2H54.1l19.9-58.5h17l19.9,58.5H97.2z M75.6,64.4h14.2l-7.3-21.5L75.6,64.4z"/>
		<path d="M135.1,87.3c-6,0-10.9-1.3-14.9-3.9c-4-2.6-6.8-6.1-8.5-10.6l11.5-6.7c2.3,5.4,6.4,8.1,12.3,8.1c5.3,0,7.9-1.6,7.9-4.8
			c0-1.7-0.8-3.1-2.5-4.1c-1.7-1-4.9-2.1-9.6-3.4c-2.5-0.7-4.6-1.4-6.4-2.3c-1.8-0.8-3.6-1.9-5.4-3.3c-1.8-1.4-3.1-3.1-4-5.1
			c-0.9-2.1-1.4-4.4-1.4-7.1c0-5.4,1.9-9.7,5.8-12.9c3.9-3.2,8.5-4.8,13.8-4.8c4.8,0,9,1.1,12.7,3.4c3.7,2.3,6.6,5.5,8.7,9.8
			l-11.3,6.6c-1.1-2.2-2.4-3.9-3.9-5.1c-1.6-1.1-3.6-1.7-6.2-1.7c-2,0-3.5,0.4-4.6,1.3c-1.1,0.9-1.6,1.9-1.6,3.1
			c0,1.4,0.7,2.7,2,3.8c1.4,1.1,4.2,2.2,8.5,3.5c2.3,0.7,4.1,1.3,5.4,1.8c1.3,0.4,2.9,1.2,4.9,2.2c2,1,3.5,2.1,4.5,3.3
			c1,1.1,1.9,2.6,2.8,4.5c0.8,1.9,1.2,4,1.2,6.4c0,5.6-2,10-6,13.2C146.8,85.7,141.6,87.3,135.1,87.3z"/>
		<path d="M227.8,87.3c-6,0-10.9-1.3-14.9-3.9c-4-2.6-6.8-6.1-8.5-10.6l11.5-6.7c2.3,5.4,6.4,8.1,12.3,8.1c5.3,0,7.9-1.6,7.9-4.8
			c0-1.7-0.8-3.1-2.5-4.1c-1.7-1-4.9-2.1-9.6-3.4c-2.5-0.7-4.6-1.4-6.4-2.3c-1.8-0.8-3.6-1.9-5.4-3.3c-1.8-1.4-3.1-3.1-4-5.1
			c-0.9-2.1-1.4-4.4-1.4-7.1c0-5.4,1.9-9.7,5.8-12.9c3.9-3.2,8.5-4.8,13.8-4.8c4.8,0,9,1.1,12.7,3.4c3.7,2.3,6.6,5.5,8.7,9.8
			l-11.3,6.6c-1.1-2.2-2.4-3.9-3.9-5.1c-1.6-1.1-3.6-1.7-6.2-1.7c-2,0-3.5,0.4-4.6,1.3c-1.1,0.9-1.6,1.9-1.6,3.1
			c0,1.4,0.7,2.7,2,3.8c1.4,1.1,4.2,2.2,8.5,3.5c2.3,0.7,4.1,1.3,5.4,1.8c1.3,0.4,2.9,1.2,4.9,2.2c2,1,3.5,2.1,4.5,3.3
			c1,1.1,1.9,2.6,2.8,4.5c0.8,1.9,1.2,4,1.2,6.4c0,5.6-2,10-6,13.2C239.5,85.7,234.3,87.3,227.8,87.3z"/>
		<path d="M266.8,84.9c-1.6,1.6-3.4,2.3-5.6,2.3c-2.2,0-4-0.8-5.6-2.3c-1.6-1.6-2.3-3.4-2.3-5.6c0-2.2,0.8-4,2.3-5.6
			c1.6-1.6,3.4-2.3,5.6-2.3c2.2,0,4,0.8,5.6,2.3c1.6,1.6,2.3,3.4,2.3,5.6C269.1,81.5,268.4,83.4,266.8,84.9z"/>
		<path d="M331.6,53.5v5c0,8.7-2.7,15.7-8.1,20.9c-5.4,5.2-12.3,7.8-20.7,7.8c-9.1,0-16.6-2.9-22.6-8.8c-6-5.8-9-13-9-21.5
			c0-8.5,3-15.7,8.9-21.6c5.9-5.9,13.2-8.9,21.8-8.9c5.5,0,10.5,1.2,15,3.7c4.5,2.5,8.1,5.7,10.6,9.7l-11.4,6.5
			c-1.3-2-3.2-3.6-5.7-4.9c-2.5-1.3-5.4-1.9-8.6-1.9c-5,0-9.1,1.6-12.3,4.9c-3.3,3.3-4.9,7.5-4.9,12.6c0,5.1,1.7,9.2,5,12.4
			c3.3,3.2,7.8,4.8,13.4,4.8c7.7,0,12.7-3,14.9-9h-15.6V53.5H331.6z"/>
		<path d="M397,53.5v5c0,8.7-2.7,15.7-8.1,20.9c-5.4,5.2-12.3,7.8-20.7,7.8c-9.1,0-16.6-2.9-22.6-8.8c-6-5.8-9-13-9-21.5
			c0-8.5,3-15.7,8.9-21.6c5.9-5.9,13.2-8.9,21.8-8.9c5.5,0,10.5,1.2,15,3.7c4.5,2.5,8.1,5.7,10.6,9.7l-11.4,6.5
			c-1.3-2-3.2-3.6-5.7-4.9c-2.5-1.3-5.4-1.9-8.6-1.9c-5,0-9.1,1.6-12.3,4.9c-3.3,3.3-4.9,7.5-4.9,12.6c0,5.1,1.7,9.2,5,12.4
			c3.3,3.2,7.8,4.8,13.4,4.8c7.7,0,12.7-3,14.9-9h-15.6V53.5H397z"/>
	</g>
</g>
</svg>
